<svg preserveAspectRatio="none" overflow="visible" style="display: block;" width="81.9998" height="87.0229" viewBox="0 0 81.9998 87.0229" fill="none" xmlns="http://www.w3.org/2000/svg">
<g id="Group 64">
<path id="Vector" d="M58.9294 16.7457C53.1287 11.6034 45.7461 9.23007 37.9679 10.0212C25.4438 11.4716 15.4245 21.6242 14.238 34.1502C13.447 42.4569 16.4792 50.4999 22.4117 56.1695C26.103 59.7295 28.3441 62.894 28.6078 68.1681H27.4213C26.103 68.1681 24.9165 69.2229 24.9165 70.6733V75.8155C24.9165 77.134 25.9712 78.3207 27.4213 78.3207H31.2445V80.1666H27.8168C27.0258 80.1666 26.4985 80.694 26.4985 81.4852C26.4985 82.2763 27.0258 82.8037 27.8168 82.8037H31.2445V83.5948C31.2445 85.4407 32.6946 87.023 34.6721 87.023H47.3281C49.1737 87.023 50.7557 85.5726 50.7557 83.5948V82.8037H54.1834C54.9744 82.8037 55.5017 82.2763 55.5017 81.4852C55.5017 80.694 54.9744 80.1666 54.1834 80.1666H50.7557V78.3207H54.5789C55.8972 78.3207 57.0837 77.2659 57.0837 75.8155V70.6733C57.0837 69.3547 56.029 68.1681 54.5789 68.1681H53.3924C53.656 63.1577 55.7654 59.9932 60.1158 55.6421C65.1255 50.6317 67.894 43.9072 67.894 36.7872C67.894 29.1398 64.73 21.8879 58.9294 16.7457ZM48.1191 81.4852V83.7266C48.1191 84.1222 47.8554 84.5178 47.3281 84.5178H34.6721C34.2766 84.5178 33.8811 84.2541 33.8811 83.7266V81.617V78.4525H47.9872V81.4852H48.1191ZM54.447 75.6837H49.4374H32.6946H27.685V70.937H30.058H52.0741H54.447V75.6837ZM58.2702 53.928C54.3152 57.8836 51.0194 61.8392 50.7557 68.2999H31.2445C30.9808 62.1029 28.3441 58.2791 24.2573 54.3236C18.8522 49.1813 16.2155 41.9295 16.8747 34.4139C17.9294 23.0746 26.894 13.8449 38.2316 12.6582C45.2187 11.8671 51.9422 13.9768 57.2155 18.7234C62.357 23.3383 65.2573 29.9309 65.2573 36.7872C65.2573 43.248 62.8843 49.3132 58.2702 53.928Z" fill="#2B59C3"/>
<path id="Vector_2" d="M51.151 38.5012L45.0867 35.6004L48.2507 25.8433C48.3825 25.3158 48.2507 24.6566 47.7233 24.3929C47.3278 23.9973 46.6687 23.9973 46.1413 24.3929L30.5851 35.2049C30.1896 35.4686 29.9259 35.8641 30.0577 36.3915C30.0577 36.919 30.3214 37.3145 30.8487 37.4464L36.7812 40.3471L32.6944 49.5769C32.4307 50.1043 32.5626 50.7636 33.0899 51.1591C33.3536 51.4229 33.6172 51.4229 34.0127 51.4229C34.2764 51.4229 34.54 51.4229 34.6719 51.1591L51.2828 40.8746C51.6783 40.6109 51.942 40.2153 51.942 39.6879C51.942 39.1605 51.5465 38.7649 51.151 38.5012ZM36.7812 46.808L39.6815 40.3471C39.9452 39.6879 39.6815 38.8968 39.0224 38.6331L34.0127 36.2597L44.5593 29.0077L42.3182 36.1278C42.0545 36.7871 42.45 37.4464 42.9773 37.7101L47.8552 40.0834L36.7812 46.808Z" fill="#2B59C3"/>
<path id="Vector_3" d="M42.3183 5.01015V1.31846C42.3183 0.527384 41.791 0 41 0C40.209 0 39.6816 0.527384 39.6816 1.31846V5.01015C39.6816 5.80123 40.209 6.32861 41 6.32861C41.791 6.32861 42.3183 5.80123 42.3183 5.01015Z" fill="#2B59C3"/>
<path id="Vector_4" d="M14.7655 15.4271L12.1289 12.7897C11.6015 12.2622 10.8105 12.2622 10.2832 12.7897C9.75586 13.3172 9.75586 14.1084 10.2832 14.6359L12.9199 17.2733C13.1835 17.5371 13.579 17.6689 13.8427 17.6689C14.1063 17.6689 14.5018 17.5371 14.7655 17.2733C15.2928 16.7458 15.2928 15.9546 14.7655 15.4271Z" fill="#2B59C3"/>
<path id="Vector_5" d="M1.31833 44.8292H5.00965C5.80064 44.8292 6.32797 44.302 6.32797 43.5111C6.32797 42.7201 5.80064 42.1929 5.00965 42.1929H1.31833C0.527331 42.1929 0 42.7201 0 43.5111C0 44.302 0.527331 44.8292 1.31833 44.8292Z" fill="#2B59C3"/>
<path id="Vector_6" d="M80.6815 44.8292C81.4725 44.8292 81.9998 44.302 81.9998 43.5111C81.9998 42.7201 81.4725 42.1929 80.6815 42.1929H76.9902C76.1992 42.1929 75.6719 42.7201 75.6719 43.5111C75.6719 44.302 76.1992 44.8292 76.9902 44.8292H80.6815Z" fill="#2B59C3"/>
<path id="Vector_7" d="M69.2119 17.2733L71.8485 14.6359C72.3759 14.1084 72.3759 13.3172 71.8485 12.7897C71.3212 12.2622 70.5302 12.2622 70.0029 12.7897L67.3662 15.4271C66.8389 15.9546 66.8389 16.7458 67.3662 17.2733C67.6299 17.5371 68.0254 17.6689 68.289 17.6689C68.5527 17.6689 68.9482 17.5371 69.2119 17.2733Z" fill="#2B59C3"/>
</g>
</svg>
