<svg preserveAspectRatio="none" overflow="visible" style="display: block;" width="60" height="83.0215" viewBox="0 0 60 83.0215" fill="none" xmlns="http://www.w3.org/2000/svg">
<g id="Group 66">
<path id="Vector" d="M58.5714 0H12.0286C8.8384 0 5.77888 1.26981 3.52309 3.53007C1.26729 5.79034 0 8.85593 0 12.0524C0 12.2815 0 12.5248 0 12.7395C0 12.9542 0 12.8397 0 12.8826V70.5826C0.00378095 73.8804 1.31293 77.0421 3.64024 79.374C5.96755 81.706 9.12297 83.0177 12.4143 83.0215H58.5714C58.9503 83.0215 59.3137 82.8707 59.5816 82.6022C59.8495 82.3338 60 81.9697 60 81.5901V1.4314C60 1.05177 59.8495 0.687689 59.5816 0.419249C59.3137 0.150808 58.9503 0 58.5714 0V0ZM24.1143 17.6492C23.7354 17.6492 23.372 17.8 23.1041 18.0685C22.8362 18.3369 22.6857 18.701 22.6857 19.0806V22.3299L17.2571 26.71V9.66198H30.9571V26.71L25.5429 22.3299V19.0806C25.5429 18.701 25.3923 18.3369 25.1244 18.0685C24.8565 17.8 24.4932 17.6492 24.1143 17.6492V17.6492ZM57.1429 9.66198V13.355H33.8143V9.66198H57.1429ZM33.8143 16.2178H57.1429V21.2277H33.8143V16.2178ZM5.52857 5.55385C7.25493 3.83101 9.59203 2.86344 12.0286 2.86281H57.1429V6.79917H11.1571C10.7783 6.79917 10.4149 6.94998 10.147 7.21842C9.87908 7.48686 9.72857 7.85095 9.72857 8.23058C9.72857 8.61021 9.87908 8.97429 10.147 9.24273C10.4149 9.51117 10.7783 9.66198 11.1571 9.66198H14.4V13.355H11.1571C10.7783 13.355 10.4149 13.5058 10.147 13.7743C9.87908 14.0427 9.72857 14.4068 9.72857 14.7864C9.72857 15.166 9.87908 15.5301 10.147 15.7986C10.4149 16.067 10.7783 16.2178 11.1571 16.2178H14.4V21.2277H12.0286C11.7286 21.2277 11.4429 21.2277 11.1429 21.2277C8.98377 21.0147 6.96897 20.0451 5.45328 18.4897C3.93759 16.9344 3.01824 14.893 2.85714 12.7252C2.85714 12.5105 2.85714 12.2671 2.85714 12.0524C2.85619 9.61775 3.81655 7.28156 5.52857 5.55385V5.55385ZM57.1429 80.1587H12.4143C9.88074 80.1549 7.45203 79.1448 5.66054 77.3497C3.86905 75.5547 2.86092 73.1212 2.85714 70.5826V19.8106L2.97143 19.9395C3.14286 20.1399 3.34286 20.3403 3.52857 20.5263L3.8 20.7983C4.09144 21.0759 4.39658 21.3386 4.71429 21.5856V21.5856L5.68571 22.2583L6.02857 22.4587L6.74286 22.8452L7.17143 23.0313L7.87143 23.3176L8.32857 23.475C8.56738 23.5597 8.81059 23.6314 9.05714 23.6898L9.51429 23.8043L10.3429 23.9474H10.7571C11.1759 23.9692 11.5955 23.9692 12.0143 23.9474H14.3857V29.5585C14.3848 29.8294 14.4606 30.095 14.6043 30.3244C14.748 30.5538 14.9538 30.7377 15.1976 30.8546C15.4415 30.9715 15.7134 31.0167 15.9819 30.9849C16.2504 30.9531 16.5043 30.8457 16.7143 30.675L24.1 24.706L31.4286 30.8181C31.554 30.9036 31.6881 30.9756 31.8286 31.0329H31.9571H32.2571H32.4C32.7789 31.0329 33.1422 30.882 33.4102 30.6136C33.6781 30.3452 33.8286 29.9811 33.8286 29.6015V24.0905H57.1429V80.1587Z" fill="#2B59C3"/>
<path id="Vector_2" d="M42.9895 53.4643L35.2426 49.7481L39.2845 37.248C39.4529 36.5723 39.2845 35.7277 38.6109 35.3898C38.1056 34.8831 37.2636 34.8831 36.5899 35.3898L16.7175 49.2413C16.2122 49.5792 15.8754 50.0859 16.0438 50.7616C16.0438 51.4373 16.3806 51.9441 17.0543 52.113L24.6328 55.8292L19.412 67.6537C19.0752 68.3293 19.2436 69.174 19.9173 69.6807C20.2541 70.0186 20.5909 70.0186 21.0961 70.0186C21.433 70.0186 21.7698 70.0186 21.9382 69.6807L43.1579 56.5049C43.6632 56.1671 44 55.6603 44 54.9846C44 54.3089 43.4948 53.8022 42.9895 53.4643ZM24.6328 64.1063L28.3378 55.8292C28.6746 54.9846 28.3378 53.9711 27.4957 53.6333L21.0961 50.5927L34.569 41.3021L31.706 50.4238C31.3692 51.2684 31.8744 52.113 32.5481 52.4508L38.7793 55.4914L24.6328 64.1063Z" fill="#2B59C3"/>
</g>
</svg>
